# xmcd
#
# Track frame offsets: 
#        150
#        11202
#        22585
#        36147
#        49452
#        61905
#        74100
#        87785
#        100570
#        111535
#        123042
#        134297
#        144610
#        156622
#        166407
#        176870
#        187907
#        198325
#        207367
#        217010
#        227167
#        236665
#        247205
#        257120
#        268537
#        279202
#        288500
#        299180
#        308142
#        318850
#
# Disc length: 4371 seconds
#
# Revision: 1
# Processed by: cddbd v1.5.2PL0 Copyright (c) Steve Scherf et al.
# Submitted via: ExactAudioCopy v1.0b3
#
DISCID=d211111e
DTITLE=Frankie Miller - Sugar Coated Baby
DYEAR=1996
DGENRE=Country
TTITLE0=I Don´t Know
TTITLE1=I Won´t Forget
TTITLE2=I´m Still In Love Wirth You
TTITLE3=I´m Gettin´Rid Of You
TTITLE4=You Just Had
TTITLE5=Barefoot Blues
TTITLE6=I´m Only Wishin´
TTITLE7=I´m So Blue i Don´t Know What To Do
TTITLE8=I Dreamed You Were Here Last Night
TTITLE9=Baby We´re Really In Love
TTITLE10=I can´t Run Away
TTITLE11=I´d still Want You
TTITLE12=I Don´t Know What To Tell My Heart
TTITLE13=Hey Where Ya Goin´?
TTITLE14=You´ll never be True
TTITLE15=It´s No Big Thing To Me
TTITLE16=What Have I Ever Done
TTITLE17=Paid  In Full
TTITLE18=My Wedding Song To You
TTITLE19=You´re Going To Cry On My Shoulder Again
TTITLE20=You Don´t Show Me Much
TTITLE21=What You Do From Now On
TTITLE22=Paint,Powder And Perfume
TTITLE23=Day By Day
TTITLE24=I Don´t Know Why I Love You
TTITLE25=Love Me Now
TTITLE26=Living Doll
TTITLE27=Sugar Coated Baby
TTITLE28=This Lonley Heart
TTITLE29=Power of Love
EXTD=
EXTT0=
EXTT1=
EXTT2=
EXTT3=
EXTT4=
EXTT5=
EXTT6=
EXTT7=
EXTT8=
EXTT9=
EXTT10=
EXTT11=
EXTT12=
EXTT13=
EXTT14=
EXTT15=
EXTT16=
EXTT17=
EXTT18=
EXTT19=
EXTT20=
EXTT21=
EXTT22=
EXTT23=
EXTT24=
EXTT25=
EXTT26=
EXTT27=
EXTT28=
EXTT29=
PLAYORDER=
